# xmcd CD database file
#
# Track frame offsets:
#	150
#	25253
#	53933
#	75003
#	104449
#	139992
#	183269
#	237387
#
# Disc length: 3540 seconds
#
# Revision: 4
# Processed by: cddbd v1.4PL0 Copyright (c) Steve Scherf et al.
# Submitted via: CDex 1.50Beta7
#
DISCID=600dd208
DTITLE=Cybertribe - Dharma Cafe
DYEAR=2002
DGENRE=New Age
TTITLE0=Reaching Motherland (Pink Noise Mix)
TTITLE1=Outland (Steve Rhyner Chillout Mix)
TTITLE2=Reaching Motherland (Spirit of Flow Remix)
TTITLE3=The Spirit of Earth Continues (Floating Earth Remix)
TTITLE4=Seaside Traveling (Offshore Remix)
TTITLE5=Reaching Motherland (Aural Remix)
TTITLE6=Welcome to The Journey (Space Night Mix)
TTITLE7=Return of The Rising Moon (Electronic Mix)
EXTD=YEAR: 2002
EXTT0=
EXTT1=
EXTT2=
EXTT3=
EXTT4=
EXTT5=
EXTT6=
EXTT7=
PLAYORDER=
